<svg width="23" height="22" viewBox="0 0 23 22" fill="none" xmlns="http://www.w3.org/2000/svg">
<g clip-path="url(#clip0_17_368)">
<path d="M15.415 11C15.415 11.9117 15.0518 12.786 14.4052 13.4307C13.7586 14.0753 12.8817 14.4375 11.9673 14.4375C11.0529 14.4375 10.1759 14.0753 9.52935 13.4307C8.88277 12.786 8.51953 11.9117 8.51953 11C8.51953 10.0883 8.88277 9.21398 9.52935 8.56932C10.1759 7.92466 11.0529 7.5625 11.9673 7.5625C12.8817 7.5625 13.7586 7.92466 14.4052 8.56932C15.0518 9.21398 15.415 10.0883 15.415 11Z" fill="#2F2F2F"/>
<path d="M0.93457 11C0.93457 11 5.07187 3.4375 11.9674 3.4375C18.8629 3.4375 23.0001 11 23.0001 11C23.0001 11 18.8629 18.5625 11.9674 18.5625C5.07187 18.5625 0.93457 11 0.93457 11ZM11.9674 15.8125C13.2475 15.8125 14.4752 15.3055 15.3805 14.403C16.2857 13.5004 16.7942 12.2764 16.7942 11C16.7942 9.72365 16.2857 8.49957 15.3805 7.59705C14.4752 6.69453 13.2475 6.1875 11.9674 6.1875C10.6872 6.1875 9.45947 6.69453 8.55426 7.59705C7.64905 8.49957 7.14051 9.72365 7.14051 11C7.14051 12.2764 7.64905 13.5004 8.55426 14.403C9.45947 15.3055 10.6872 15.8125 11.9674 15.8125Z" fill="#2F2F2F"/>
</g>
<defs>
<clipPath id="clip0_17_368">
<rect width="22.0656" height="22" fill="white" transform="translate(0.93457)"/>
</clipPath>
</defs>
</svg>
