<svg width="25" height="24" viewBox="0 0 25 24" fill="none" xmlns="http://www.w3.org/2000/svg">
<path d="M11.0328 19V20C11.0328 20.2652 10.9271 20.5196 10.739 20.7071C10.5509 20.8946 10.2958 21 10.0298 21H8.02384V22C8.02384 22.5304 7.8125 23.0391 7.43631 23.4142C7.06012 23.7893 6.5499 24 6.01788 24H2.00596C1.47395 24 0.963723 23.7893 0.587532 23.4142C0.211342 23.0391 0 22.5304 0 22V19.414C0.000113612 18.8836 0.21153 18.375 0.587747 18L8.35082 10.26C7.87481 8.64847 7.91972 6.92844 8.47918 5.34379C9.03863 3.75913 10.0842 2.39029 11.4677 1.43135C12.8512 0.472415 14.5024 -0.0279511 16.1871 0.00120556C17.8718 0.0303622 19.5045 0.587561 20.8538 1.59379C22.2031 2.60003 23.2004 4.00423 23.7044 5.60728C24.2083 7.21034 24.1933 8.93089 23.6615 10.525C23.1297 12.1191 22.1081 13.5058 20.7415 14.4885C19.3749 15.4712 17.7327 16 16.0477 16H14.0397V18C14.0397 18.2652 13.9341 18.5196 13.746 18.7071C13.5579 18.8946 13.3027 19 13.0367 19H11.0308H11.0328ZM18.0536 8C18.5857 8 19.0959 7.78929 19.4721 7.41421C19.8483 7.03914 20.0596 6.53043 20.0596 6C20.0596 5.46957 19.8483 4.96086 19.4721 4.58579C19.0959 4.21071 18.5857 4 18.0536 4C17.5216 4 17.0114 4.21071 16.6352 4.58579C16.259 4.96086 16.0477 5.46957 16.0477 6C16.0477 6.53043 16.259 7.03914 16.6352 7.41421C17.0114 7.78929 17.5216 8 18.0536 8Z" fill="black"/>
</svg>
