<svg width="150" height="42" viewBox="0 0 150 42" fill="none" xmlns="http://www.w3.org/2000/svg">
<g clip-path="url(#clip0_160_619)">
<path d="M41.3023 1.52588e-05H0.0131836V41.2891H41.3023V1.52588e-05Z" fill="#00764A"/>
<path d="M36.9375 16.9181L20.7571 33.2993L0 13.8068V21.7084L20.7579 41.2892L29.0829 33.3001L36.9359 41.2892H41.2996V36.7247L33.3778 28.6013L41.2996 20.6795L36.9375 16.9181Z" fill="white"/>
<path d="M17.1217 12.6684L12.542 8.08871L7.96226 12.6684L12.542 17.2482L17.1217 12.6684Z" fill="white"/>
<path d="M25.3707 21.0996L20.791 16.5198L16.2113 21.0996L20.791 25.6793L25.3707 21.0996Z" fill="white"/>
<path d="M51.7109 23.9404H57.34V41.2891H62.7246V23.9404H68.3537V21.0494H51.7109V23.9404ZM80.7833 21.0494H72.906L67.4251 41.2891H72.3636L73.2938 37.6168H79.9017L80.8351 41.2891H86.2691L80.7833 21.0494ZM76.5734 24.635L79.1641 34.8707H73.9828L76.5734 24.635ZM96.2052 21.0494H88.7173V41.2891H93.4129V26.9772L97.4293 41.2891H102.52L106.244 26.774V41.2891H111.335V21.0494H103.841L100.171 35.4196L96.2052 21.0494ZM120.631 23.9404H129.931V21.0494H115.247V41.2891H129.931V38.3981H120.631V32.4702H128.022V29.5792H120.631V23.9404ZM150.003 41.2891C149.532 40.5611 149.325 39.6936 149.415 38.8312V35.7086C149.415 33.598 148.535 32.0654 145.842 31.4C148.241 30.7353 149.366 29.376 149.366 27.2937V25.7045C149.366 22.5819 146.967 21.0494 141.388 21.0494H133.259V41.2891H138.644V33.0491H140.506C142.953 33.0491 144.03 33.7429 144.03 35.6228V38.8037C144.03 40.452 144.226 40.7702 144.516 41.2899L150.003 41.2891ZM141.239 23.9404C143.148 23.9404 143.98 24.5767 143.98 26.0219V28.0167C143.98 29.6359 142.756 30.1564 140.75 30.1564H138.645V23.9396L141.239 23.9404Z" fill="black"/>
</g>
<defs>
<clipPath id="clip0_160_619">
<rect width="150" height="41.2899" fill="white"/>
</clipPath>
</defs>
</svg>
