<svg width="19" height="24" viewBox="0 0 19 24" fill="none" xmlns="http://www.w3.org/2000/svg">
<path d="M9.36115 10.6667C10.4191 10.6667 11.4533 10.3539 12.333 9.76784C13.2127 9.1818 13.8983 8.34885 14.3032 7.37431C14.7081 6.39977 14.814 5.32742 14.6076 4.29285C14.4012 3.25829 13.8917 2.30798 13.1436 1.5621C12.3955 0.816219 11.4424 0.308269 10.4047 0.102481C9.36709 -0.103307 8.29153 0.00231083 7.31409 0.405978C6.33665 0.809645 5.50121 1.49323 4.91343 2.37029C4.32565 3.24736 4.01192 4.2785 4.01192 5.33333C4.01192 6.74782 4.5755 8.10438 5.57867 9.10457C6.58185 10.1048 7.94245 10.6667 9.36115 10.6667ZM17.385 24C17.7397 24 18.0798 23.8595 18.3306 23.6095C18.5814 23.3594 18.7223 23.0203 18.7223 22.6667C18.7223 20.1913 17.736 17.8173 15.9805 16.067C14.2249 14.3167 11.8439 13.3333 9.36115 13.3333C6.87842 13.3333 4.49737 14.3167 2.74182 16.067C0.986261 17.8173 3.69956e-08 20.1913 0 22.6667C0 23.0203 0.140895 23.3594 0.391688 23.6095C0.642482 23.8595 0.982631 24 1.33731 24H17.385Z" fill="black"/>
</svg>
